<svg xmlns="http://www.w3.org/2000/svg" xmlns:xlink="http://www.w3.org/1999/xlink" width="110" height="105" viewBox="0 0 110 105">
  <defs>
    <clipPath id="clip-path">
      <rect id="사각형_1049" data-name="사각형 1049" width="71.745" height="96.982" fill="none"/>
    </clipPath>
    <clipPath id="clip-path-2">
      <rect id="사각형_1071" data-name="사각형 1071" width="68.987" height="68.987" rx="34.494" fill="none"/>
    </clipPath>
  </defs>
  <g id="그룹_15289" data-name="그룹 15289" transform="translate(13951 13844)">
    <rect id="사각형_1557" data-name="사각형 1557" width="110" height="105" transform="translate(-13951 -13844)" fill="none"/>
    <g id="그룹_15230" data-name="그룹 15230" transform="translate(-13932 -13840)">
      <g id="그룹_14069" data-name="그룹 14069" transform="translate(0 0)">
        <g id="그룹_14068" data-name="그룹 14068" clip-path="url(#clip-path)">
          <path id="패스_12970" data-name="패스 12970" d="M38.662,107.593H34.327A32.422,32.422,0,0,1,2,75.266V70.933A32.422,32.422,0,0,1,34.327,38.606h4.334A32.422,32.422,0,0,1,70.988,70.933v4.334a32.422,32.422,0,0,1-32.327,32.327" transform="translate(-0.621 -11.99)" fill="#adc2e2"/>
        </g>
      </g>
      <g id="그룹_14071" data-name="그룹 14071" transform="translate(1.379 26.616)">
        <g id="그룹_14070" data-name="그룹 14070" clip-path="url(#clip-path-2)">
          <rect id="사각형_1050" data-name="사각형 1050" width="0.689" height="68.987" transform="translate(7.427)" fill="#f5f5f5"/>
          <rect id="사각형_1051" data-name="사각형 1051" width="0.689" height="68.987" transform="translate(14.107)" fill="#f5f5f5"/>
          <rect id="사각형_1052" data-name="사각형 1052" width="0.689" height="68.987" transform="translate(20.788)" fill="#f5f5f5"/>
          <rect id="사각형_1053" data-name="사각형 1053" width="0.689" height="68.987" transform="translate(27.468)" fill="#f5f5f5"/>
          <rect id="사각형_1054" data-name="사각형 1054" width="0.689" height="68.987" transform="translate(34.149)" fill="#f5f5f5"/>
          <rect id="사각형_1055" data-name="사각형 1055" width="0.689" height="68.987" transform="translate(40.83)" fill="#f5f5f5"/>
          <rect id="사각형_1056" data-name="사각형 1056" width="0.689" height="68.987" transform="translate(47.51)" fill="#f5f5f5"/>
          <rect id="사각형_1057" data-name="사각형 1057" width="0.689" height="68.987" transform="translate(54.191)" fill="#f5f5f5"/>
          <rect id="사각형_1058" data-name="사각형 1058" width="0.689" height="68.987" transform="translate(60.871)" fill="#f5f5f5"/>
          <rect id="사각형_1059" data-name="사각형 1059" width="0.689" height="68.987" transform="translate(67.551)" fill="#f5f5f5"/>
          <rect id="사각형_1060" data-name="사각형 1060" width="0.689" height="68.987" transform="translate(0.747)" fill="#f5f5f5"/>
          <rect id="사각형_1061" data-name="사각형 1061" width="68.987" height="0.689" transform="translate(0 4.691)" fill="#f5f5f5"/>
          <rect id="사각형_1062" data-name="사각형 1062" width="68.987" height="0.689" transform="translate(0 11.237)" fill="#f5f5f5"/>
          <rect id="사각형_1063" data-name="사각형 1063" width="68.987" height="0.689" transform="translate(0 17.783)" fill="#f5f5f5"/>
          <rect id="사각형_1064" data-name="사각형 1064" width="68.987" height="0.689" transform="translate(0 24.33)" fill="#f5f5f5"/>
          <rect id="사각형_1065" data-name="사각형 1065" width="68.987" height="0.689" transform="translate(0 30.876)" fill="#f5f5f5"/>
          <rect id="사각형_1066" data-name="사각형 1066" width="68.987" height="0.689" transform="translate(0 37.422)" fill="#f5f5f5"/>
          <rect id="사각형_1067" data-name="사각형 1067" width="68.987" height="0.689" transform="translate(0 43.968)" fill="#f5f5f5"/>
          <rect id="사각형_1068" data-name="사각형 1068" width="68.987" height="0.689" transform="translate(0 50.515)" fill="#f5f5f5"/>
          <rect id="사각형_1069" data-name="사각형 1069" width="68.987" height="0.689" transform="translate(0 57.061)" fill="#f5f5f5"/>
          <rect id="사각형_1070" data-name="사각형 1070" width="68.987" height="0.689" transform="translate(0 63.607)" fill="#f5f5f5"/>
        </g>
      </g>
      <g id="그룹_14073" data-name="그룹 14073" transform="translate(0 0)">
        <g id="그룹_14072" data-name="그룹 14072" clip-path="url(#clip-path)">
          <path id="패스_12971" data-name="패스 12971" d="M35.873,108.351A35.872,35.872,0,1,1,71.745,72.478a35.914,35.914,0,0,1-35.873,35.872m0-68.987A33.115,33.115,0,1,0,68.987,72.478,33.152,33.152,0,0,0,35.873,39.364" transform="translate(0 -11.369)" fill="#5185b3"/>
          <rect id="사각형_1072" data-name="사각형 1072" width="2.758" height="24.819" transform="translate(18.407 5.937)" fill="#5185b3"/>
          <rect id="사각형_1073" data-name="사각형 1073" width="2.758" height="24.819" transform="translate(50.58 5.937)" fill="#5185b3"/>
          <rect id="사각형_1074" data-name="사각형 1074" width="54.083" height="7.584" transform="translate(8.832)" fill="#5185b3"/>
        </g>
      </g>
    </g>
  </g>
</svg>
