<svg xmlns="http://www.w3.org/2000/svg" width="40" height="40" viewBox="0 0 40 40">
  <g id="그룹_15264" data-name="그룹 15264" transform="translate(11713 12738)">
    <rect id="사각형_1551" data-name="사각형 1551" width="40" height="40" transform="translate(-11713 -12738)" fill="none"/>
    <g id="free-icon-font-picture-3917317" transform="translate(-11709 -12734)">
      <path id="패스_10468" data-name="패스 10468" d="M24.652,0H6.487A6.5,6.5,0,0,0,0,6.487V24.652A6.5,6.5,0,0,0,6.487,31.14H24.652a6.5,6.5,0,0,0,6.487-6.487V6.487A6.5,6.5,0,0,0,24.652,0ZM6.487,2.595H24.652a3.892,3.892,0,0,1,3.892,3.892V24.652a3.829,3.829,0,0,1-.389,1.667L16.266,14.431a6.487,6.487,0,0,0-9.176,0l-4.5,4.495V6.487A3.892,3.892,0,0,1,6.487,2.595Zm0,25.95a3.892,3.892,0,0,1-3.892-3.892V22.595l6.329-6.329a3.892,3.892,0,0,1,5.507,0l11.889,11.89a3.829,3.829,0,0,1-1.667.389Z" fill="#6770ef"/>
      <path id="패스_10469" data-name="패스 10469" d="M17.041,12.582A4.541,4.541,0,1,0,12.5,8.041,4.541,4.541,0,0,0,17.041,12.582Zm0-6.487a1.946,1.946,0,1,1-1.946,1.946A1.946,1.946,0,0,1,17.041,6.095Z" transform="translate(3.718 1.041)" fill="#6770ef"/>
    </g>
  </g>
</svg>
