<svg xmlns="http://www.w3.org/2000/svg" width="34.562" height="35.174" viewBox="0 0 34.562 35.174">
  <g id="그룹_12047" data-name="그룹 12047" transform="translate(-1860.643 -57)">
    <g id="free-icon-font-sign-out-alt-5528149" transform="translate(1860.643 57)">
      <path id="패스_1" data-name="패스 1" d="M16.854,23.449a2.2,2.2,0,0,0-2.2,2.2V26.82A3.957,3.957,0,0,1,10.7,30.777H8.354A3.957,3.957,0,0,1,4.4,26.82V8.354A3.957,3.957,0,0,1,8.354,4.4H10.7a3.957,3.957,0,0,1,3.957,3.957V9.526a2.2,2.2,0,1,0,4.4,0V8.354A8.363,8.363,0,0,0,10.7,0H8.354A8.363,8.363,0,0,0,0,8.354V26.82a8.363,8.363,0,0,0,8.354,8.354H10.7a8.363,8.363,0,0,0,8.354-8.354V25.648A2.2,2.2,0,0,0,16.854,23.449Z" transform="translate(0 0)" fill="#fff"/>
      <path id="패스_2" data-name="패스 2" d="M30.5,11.865,23.783,5.143a2.2,2.2,0,1,0-3.108,3.11l5,5L7.7,13.294a2.2,2.2,0,0,0,0,4.4h0l18.053-.041L20.67,22.73a2.2,2.2,0,0,0,3.108,3.11L30.5,19.119A5.137,5.137,0,0,0,30.5,11.865Z" transform="translate(2.561 2.095)" fill="#fff"/>
    </g>
  </g>
</svg>
