<svg xmlns="http://www.w3.org/2000/svg" width="40" height="40" viewBox="0 0 40 40">
  <g id="그룹_15259" data-name="그룹 15259" transform="translate(11554 12824)">
    <rect id="사각형_1547" data-name="사각형 1547" width="40" height="40" transform="translate(-11554 -12824)" fill="none"/>
    <path id="free-icon-font-computer-3917169" d="M24.652,1H6.487A6.5,6.5,0,0,0,0,7.487v10.38a6.5,6.5,0,0,0,6.487,6.487h7.785V26.95H9.082a1.3,1.3,0,0,0,0,2.595H22.057a1.3,1.3,0,0,0,0-2.595h-5.19V24.355h7.785a6.5,6.5,0,0,0,6.487-6.487V7.487A6.5,6.5,0,0,0,24.652,1ZM6.487,3.595H24.652a3.892,3.892,0,0,1,3.892,3.892V16.57H2.595V7.487A3.892,3.892,0,0,1,6.487,3.595ZM24.652,21.76H6.487a3.892,3.892,0,0,1-3.654-2.595H28.306A3.892,3.892,0,0,1,24.652,21.76Z" transform="translate(-11550 -12819)" fill="#989898"/>
  </g>
</svg>
