<svg xmlns="http://www.w3.org/2000/svg" width="40" height="40" viewBox="0 0 40 40">
  <g id="그룹_15254" data-name="그룹 15254" transform="translate(11318 12824)">
    <rect id="사각형_1543" data-name="사각형 1543" width="40" height="40" transform="translate(-11318 -12824)" fill="none"/>
    <path id="free-icon-font-text-3914964" d="M27.247,0H3.892A3.892,3.892,0,0,0,0,3.892V31.14H31.139V3.892A3.892,3.892,0,0,0,27.247,0Zm1.3,28.545H2.595V3.892a1.3,1.3,0,0,1,1.3-1.3H27.247a1.3,1.3,0,0,1,1.3,1.3ZM7.785,7.785h15.57v5.19H20.76V10.38H16.867V20.76h2.595v2.595H11.677V20.76h2.595V10.38H10.38v2.595H7.785Z" transform="translate(-11314 -12820)" fill="#989898"/>
  </g>
</svg>
