<svg xmlns="http://www.w3.org/2000/svg" width="40" height="40" viewBox="0 0 40 40">
  <g id="그룹_15258" data-name="그룹 15258" transform="translate(11477 12738)">
    <rect id="사각형_1554" data-name="사각형 1554" width="40" height="40" transform="translate(-11477 -12738)" fill="none"/>
    <g id="free-icon-font-clock-3917267" transform="translate(-11473 -12734)">
      <path id="패스_10466" data-name="패스 10466" d="M15.57,0a15.57,15.57,0,1,0,15.57,15.57A15.57,15.57,0,0,0,15.57,0Zm0,28.545A12.975,12.975,0,1,1,28.545,15.57,12.975,12.975,0,0,1,15.57,28.545Z" transform="translate(0 0)" fill="#6770ef"/>
      <path id="패스_10467" data-name="패스 10467" d="M13.441,6a1.3,1.3,0,0,0-1.3,1.3v5.612l-4.374,2.74a1.3,1.3,0,0,0,1.378,2.206l4.982-3.114a1.3,1.3,0,0,0,.609-1.113V7.3A1.3,1.3,0,0,0,13.441,6Z" transform="translate(2.129 1.785)" fill="#6770ef"/>
    </g>
  </g>
</svg>
