<svg xmlns="http://www.w3.org/2000/svg" width="40" height="40" viewBox="0 0 40 40">
  <g id="그룹_15266" data-name="그룹 15266" transform="translate(11800 12738)">
    <rect id="사각형_1550" data-name="사각형 1550" width="40" height="40" transform="translate(-11800 -12738)" fill="none"/>
    <path id="free-icon-font-film-3914173" d="M24.652,0H6.487A6.5,6.5,0,0,0,0,6.487V24.652a6.5,6.5,0,0,0,6.487,6.487H24.652a6.5,6.5,0,0,0,6.487-6.487V6.487A6.5,6.5,0,0,0,24.652,0Zm1.3,14.272h2.595v2.595H25.95Zm0-2.595V9.082h2.595v2.595Zm-2.595,2.595H7.785V2.595h15.57ZM5.19,16.867H2.595V14.272H5.19Zm0-5.19H2.595V9.082H5.19ZM2.595,19.462H5.19v2.595H2.595Zm5.19-2.595h15.57V28.545H7.785ZM25.95,19.462h2.595v2.595H25.95ZM28.545,6.487H25.95V2.834a3.892,3.892,0,0,1,2.595,3.654ZM5.19,2.834V6.487H2.595A3.892,3.892,0,0,1,5.19,2.834ZM2.595,24.652H5.19v3.654a3.892,3.892,0,0,1-2.595-3.654ZM25.95,28.306V24.652h2.595A3.892,3.892,0,0,1,25.95,28.306Z" transform="translate(-11796 -12702.86) rotate(-90)" fill="#6770ef"/>
  </g>
</svg>
