<svg xmlns="http://www.w3.org/2000/svg" width="40" height="40" viewBox="0 0 40 40">
  <g id="그룹_15262" data-name="그룹 15262" transform="translate(11627 12738)">
    <rect id="사각형_1552" data-name="사각형 1552" width="40" height="40" transform="translate(-11627 -12738)" fill="none"/>
    <path id="free-icon-font-cloud-sun-6853912" d="M18.025,31.14c-2.543,0-4.978-.01-5.827-.034a4.864,4.864,0,0,1-1.082-.157,4.541,4.541,0,0,1-.583-8.548,8.26,8.26,0,0,1,.074-3.545,7.785,7.785,0,0,1,14.75-1.109c.176.423.371.467.762.554l.228.054h0a6.506,6.506,0,0,1,4.618,7.785,6.424,6.424,0,0,1-4.8,4.8,6.854,6.854,0,0,1-1.381.17C23.652,31.127,20.777,31.14,18.025,31.14Zm.117-15.6a5.251,5.251,0,0,0-.765.056,5.182,5.182,0,0,0-4.288,6.2,2.617,2.617,0,0,1-1.531,2.984,1.938,1.938,0,0,0-1.1,2.335,1.911,1.911,0,0,0,1.323,1.322,2.171,2.171,0,0,0,.5.074c1.741.047,10.308.039,12.456,0a4.2,4.2,0,0,0,.852-.105,3.863,3.863,0,0,0,2.854-2.845,3.922,3.922,0,0,0-2.766-4.7l-.119-.027a3.35,3.35,0,0,1-2.595-2.09A5.207,5.207,0,0,0,18.141,15.54ZM2.958,21.92a1.3,1.3,0,0,1-.664-2.413l3.515-2.092a.649.649,0,0,0,.389-.7,8.337,8.337,0,0,1-.259-1.144H1.3a1.3,1.3,0,0,1,0-2.595H5.936a8.052,8.052,0,0,1,.5-1.816L2.444,8.823a1.3,1.3,0,1,1,1.31-2.238L7.777,8.938A8.716,8.716,0,0,1,9.011,7.727L6.63,3.7A1.3,1.3,0,1,1,8.863,2.38l2.391,4.034a8.434,8.434,0,0,1,1.72-.471V1.3a1.3,1.3,0,1,1,2.595,0V5.939a7.963,7.963,0,0,1,1.8.5L19.731,2.4A1.3,1.3,0,1,1,21.972,3.71L19.58,7.791c.554.356.93,1.3,1.648.93l3.424-2.271a1.3,1.3,0,1,1,1.427,2.164L22.6,10.925a3.258,3.258,0,0,1-4.083-.573,6.1,6.1,0,0,0-4.26-1.918A6.088,6.088,0,0,0,8.434,14.3a5.339,5.339,0,0,0,.248,1.657,3.194,3.194,0,0,1-1.6,3.715L3.621,21.737A1.3,1.3,0,0,1,2.958,21.92Z" transform="translate(-11623 -12734)" fill="#6770ef"/>
  </g>
</svg>
