<svg xmlns="http://www.w3.org/2000/svg" width="40" height="40" viewBox="0 0 40 40">
  <g id="그룹_15256" data-name="그룹 15256" transform="translate(11398 12738)">
    <rect id="사각형_1549" data-name="사각형 1549" width="40" height="40" transform="translate(-11398 -12738)" fill="none"/>
    <g id="그룹_15252" data-name="그룹 15252" transform="translate(-12186.958 -13499.001)">
      <path id="패스_12418" data-name="패스 12418" d="M2.084,0H32.2c.025.02.048.05.077.058a2.94,2.94,0,0,1,2.081,2.95q-.017,14.129-.01,28.258a3.594,3.594,0,0,1-.1.93,2.844,2.844,0,0,1-2.882,2.158c-2.621.006-5.242,0-7.862,0q-10.248,0-20.5,0a2.772,2.772,0,0,1-2.166-.811A8.617,8.617,0,0,1,0,32.2V2.083a10.846,10.846,0,0,1,.523-1A3.062,3.062,0,0,1,2.084,0M1.078,5.683v.368q0,12.605,0,25.211a1.76,1.76,0,0,0,1.96,1.948h28.2a1.765,1.765,0,0,0,1.97-1.971q0-12.589,0-25.177V5.683Zm.009-1.194H33.211c0-.475,0-.922,0-1.369a1.786,1.786,0,0,0-2.034-2.043H3.11c-.134,0-.269,0-.4.008a1.7,1.7,0,0,0-1.613,1.6c-.037.59-.007,1.184-.007,1.8" transform="translate(791.958 764.002)" fill="#6770ef" stroke="#6770ef" stroke-width="1"/>
      <path id="패스_12419" data-name="패스 12419" d="M105.427,124a10.329,10.329,0,1,1-10.593-10.315A10.344,10.344,0,0,1,105.427,124m-16.069-.587c.083-.786.127-1.537.251-2.274s.337-1.481.5-2.224a.329.329,0,0,0-.076-.28c-.492-.341-1-.664-1.508-1a9.176,9.176,0,0,0-2.555,5.777ZM101.7,117.63c-.489.326-.939.64-1.4.928-.188.116-.208.221-.161.432.209.937.407,1.878.57,2.824.09.523.1,1.059.154,1.6h3.4a9.174,9.174,0,0,0-2.561-5.78M89.314,124.6H85.966a9.178,9.178,0,0,0,2.563,5.761c.506-.336,1-.648,1.469-.985a.383.383,0,0,0,.1-.324c-.082-.393-.226-.775-.29-1.17-.177-1.079-.325-2.162-.491-3.282m12.383,5.762a9.171,9.171,0,0,0,2.56-5.767h-3.426a17.766,17.766,0,0,1-.724,4.534.321.321,0,0,0,.131.257c.467.325.946.635,1.459.976m-5.979-10.321V123.4h3.964a15.551,15.551,0,0,0-.666-4.1l-3.3.735m-5.175,3.366h3.972v-3.362l-3.305-.74a15.728,15.728,0,0,0-.666,4.1m.69,5.37a10.1,10.1,0,0,1,3.053-.705c.2-.012.256-.108.255-.3-.008-.985,0-1.97-.006-2.955a1.408,1.408,0,0,0-.034-.219H90.545a15.917,15.917,0,0,0,.688,4.179m4.476-4.184v3.358l3.308.741a15.529,15.529,0,0,0,.661-4.1ZM94.515,114.9a5.442,5.442,0,0,0-2.9,3.225,8.856,8.856,0,0,0,2.9.674Zm1.2.037V118.8a8.827,8.827,0,0,0,2.879-.675,5.053,5.053,0,0,0-2.879-3.191m-1.2,14.171-2.942.684c.689,1.439,1.385,2.721,2.942,3.3Zm1.188,3.944c1.1-.236,2.361-1.645,2.879-3.176a6.9,6.9,0,0,0-2.879-.632Zm4-2.666-1.26,2.15a8.709,8.709,0,0,0,2.394-1.382l-1.134-.768m-7.983,2.2.045-.075-1.247-2.13-1.2.817,2.4,1.389m-1.2-14.982,1.253-2.133-.039-.074L89.315,116.8l1.2.812m7.925-2.148,1.261,2.151,1.128-.774a8.723,8.723,0,0,0-2.389-1.377" transform="translate(713.99 659.443)" fill="#6770ef" stroke="#6770ef" stroke-width="0.5"/>
      <rect id="사각형_180" data-name="사각형 180" width="1.096" height="1.112" transform="translate(794.787 766.244)" fill="#6770ef"/>
      <rect id="사각형_181" data-name="사각형 181" width="1.102" height="1.102" transform="translate(797.077 766.25)" fill="#6770ef"/>
      <rect id="사각형_182" data-name="사각형 182" width="1.097" height="1.104" transform="translate(799.378 766.249)" fill="#6770ef"/>
    </g>
  </g>
</svg>
